<?xml version="1.0" encoding="iso-8859-1"?>
<!-- Generator: Adobe Illustrator 16.0.0, SVG Export Plug-In . SVG Version: 6.00 Build 0)  -->
<!DOCTYPE svg PUBLIC "-//W3C//DTD SVG 1.1//EN" "http://www.w3.org/Graphics/SVG/1.1/DTD/svg11.dtd">
<svg version="1.1" id="Capa_1" xmlns="http://www.w3.org/2000/svg" xmlns:xlink="http://www.w3.org/1999/xlink" x="0px" y="0px"
	 width="36px" height="36px" viewBox="0 0 36 36" style="enable-background:new 0 0 36 36;" xml:space="preserve">
<g>
	<path d="M28.947,14.236H13.332v-3h15.615V14.236z M28.947,16.5H13.332v3h15.615V16.5z M28.947,21.762H13.332v3h15.615V21.762z
		 M10.201,11.236H7.053v3h3.148V11.236z M10.201,16.5H7.053v3h3.148V16.5z M10.201,21.762H7.053v3h3.148V21.762z M36,6v24
		c0,1.104-0.896,2-2,2H2c-1.104,0-2-0.896-2-2V6c0-1.104,0.896-2,2-2h32C35.104,4,36,4.896,36,6z M32,8H4v20h28V8z"/>
</g>
<g>
</g>
<g>
</g>
<g>
</g>
<g>
</g>
<g>
</g>
<g>
</g>
<g>
</g>
<g>
</g>
<g>
</g>
<g>
</g>
<g>
</g>
<g>
</g>
<g>
</g>
<g>
</g>
<g>
</g>
</svg>
